<?xml version="1.0" ?><!DOCTYPE svg  PUBLIC '-//W3C//DTD SVG 1.1//EN'  'http://www.w3.org/Graphics/SVG/1.1/DTD/svg11.dtd'><svg enable-background="new 0 0 128 128" height="128px" id="Layer_1" version="1.1" viewBox="0 0 128 128" width="128px" xml:space="preserve" xmlns="http://www.w3.org/2000/svg" xmlns:xlink="http://www.w3.org/1999/xlink"><g><path d="M108.168,31.072C110.272,32.891,113.007,34,116,34c6.617,0,12-5.383,12-12s-5.383-12-12-12s-12,5.383-12,12   c0,1.456,0.273,2.846,0.751,4.139l-15.585,10.79C87.062,35.109,84.328,34,81.334,34c-4.166,0-7.839,2.136-9.991,5.367   l-12.725-4.405c0.025-0.318,0.049-0.638,0.049-0.962c0-6.617-5.383-12-12-12s-12,5.383-12,12c0,1.471,0.279,2.874,0.765,4.177   L19.911,49c-2.115-1.861-4.879-3-7.911-3C5.383,46,0,51.383,0,58c0,6.617,5.383,12,12,12s12-5.383,12-12   c0-1.418-0.26-2.774-0.714-4.038l15.578-10.864C40.965,44.902,43.688,46,46.667,46c4.165,0,7.839-2.135,9.991-5.367l12.725,4.405   c-0.025,0.318-0.049,0.637-0.049,0.962c0,6.617,5.383,12,12,12s12-5.383,12-12c0-1.456-0.273-2.846-0.751-4.139L108.168,31.072z    M110,22c0-3.309,2.691-6,6-6s6,2.691,6,6s-2.691,6-6,6c-0.915,0-1.78-0.212-2.558-0.58c-1.892-0.896-3.241-2.749-3.418-4.932   C110.012,22.326,110,22.165,110,22z M18,58c0,3.309-2.691,6-6,6s-6-2.691-6-6s2.691-6,6-6c0.967,0,1.878,0.235,2.688,0.643   c1.865,0.939,3.171,2.82,3.295,5.017C17.989,57.773,18,57.885,18,58z M52.667,34c0,1.81-0.809,3.431-2.08,4.532   C49.535,39.444,48.166,40,46.667,40c-0.908,0-1.767-0.209-2.54-0.572c-1.895-0.89-3.25-2.738-3.435-4.919   c-0.014-0.168-0.026-0.337-0.026-0.509c0-3.309,2.691-6,6-6c2.92,0,5.356,2.097,5.889,4.864C52.627,33.232,52.667,33.611,52.667,34   z M87.334,46c0,3.309-2.691,6-6,6c-2.92,0-5.355-2.097-5.889-4.864c-0.071-0.368-0.111-0.748-0.111-1.136   c0-1.81,0.809-3.431,2.079-4.532C78.466,40.556,79.835,40,81.334,40c0.916,0,1.78,0.212,2.558,0.581   c1.892,0.896,3.241,2.748,3.418,4.932C87.322,45.674,87.334,45.835,87.334,46z" fill="#010101"/><path d="M124,46h-16c-2.2,0-4,1.8-4,4v64c0,2.2,1.8,4,4,4h16c2.2,0,4-1.8,4-4V50C128,47.8,126.2,46,124,46z" fill="#010101"/><path d="M89.333,70h-16c-2.2,0-4,1.8-4,4v40c0,2.2,1.8,4,4,4h16c2.2,0,4-1.8,4-4V74   C93.333,71.8,91.533,70,89.333,70z" fill="#010101"/><path d="M54.667,58h-16c-2.2,0-4,1.8-4,4v52c0,2.2,1.8,4,4,4h16c2.2,0,4-1.8,4-4V62   C58.667,59.8,56.867,58,54.667,58z" fill="#010101"/><path d="M20,82H4c-2.2,0-4,1.8-4,4v28c0,2.2,1.8,4,4,4h16c2.2,0,4-1.8,4-4V86C24,83.8,22.2,82,20,82z" fill="#010101"/></g></svg>